<?xml version="1.0" encoding="UTF-8"?>
<svg width="156px" height="43px" viewBox="0 0 156 43" version="1.1" xmlns="http://www.w3.org/2000/svg" xmlns:xlink="http://www.w3.org/1999/xlink">
    <!-- Generator: Sketch 52.5 (67469) - http://www.bohemiancoding.com/sketch -->
    <title>logo-min</title>
    <desc>Created with Sketch.</desc>
    <g id="Page-1" stroke="none" stroke-width="1" fill="none" fill-rule="evenodd">
        <g id="logo-min" fill="#302C29">
            <g id="Clipped">
                <path d="M20.049,5.203 L16.293,23.057 C21.583,22.629 25.551,15.574 25.551,9.908 C25.551,5.953 23.647,2.638 18.991,2.638 C10.421,2.638 5.289,7.502 5.289,15.627 C5.289,18.353 5.977,18.78 6.03,19.261 C2.38,19.261 0.369,17.925 0.369,14.076 C0.369,6.968 10.103,0.178 18.938,0.178 C27.614,0.178 31.422,5.203 31.422,10.709 C31.422,17.497 25.655,25.034 16.133,25.034 L15.87,25.034 L12.643,40.267 L5.025,40.267 L12.219,6.272 L20.049,5.203 Z" id="Path"></path>
            </g>
            <g id="Clipped" transform="translate(29.000000, 12.000000)" fill-rule="nonzero">
                <path d="M30.145,21.052 C29.51,21.052 28.928,20.893 28.292,20.624 C28.24,20.893 28.187,21.212 28.187,21.48 C28.187,23.778 30.673,25.114 32.737,25.114 C34.536,25.114 37.128,22.869 37.128,18.754 C37.128,15.44 34.747,12.607 34.642,5.925 C33.795,8.544 33.055,11.965 31.891,14.639 C33.162,15.067 33.638,16.028 33.638,17.631 C33.637,19.662 31.996,21.052 30.145,21.052 Z M17.289,5.551 C16.443,4.803 15.438,4.589 14.698,4.589 C10.73,4.589 7.555,13.088 7.555,20.359 C7.555,23.565 9.302,24.153 10.623,24.153 C11.84,24.153 13.004,22.924 14.062,21.426 C14.062,20.893 14.166,20.305 14.326,19.716 L17.289,5.551 Z M25.701,1.542 L21.945,19.716 C21.787,20.519 21.68,21.159 21.68,21.694 C21.68,22.817 22.104,23.404 23.321,23.404 C23.902,23.404 24.696,22.656 25.542,21.426 C25.542,16.989 27.447,14.531 29.563,14.37 C31.467,10.897 32.684,6.14 33.583,2.076 L41.254,0.473 L41.254,1.222 C41.254,10.04 44.799,12.713 44.853,18.966 L44.799,20.089 C46.279,18.753 47.603,17.362 48.238,16.614 L49.613,18.432 C48.132,19.607 46.015,21.479 43.898,23.295 C42.523,26.234 39.507,28.267 34.587,28.267 C29.721,28.267 26.863,27.145 25.91,24.043 C24.006,26.502 22.102,28.267 20.568,28.267 C16.865,28.267 14.854,26.663 14.22,24.098 C12.631,26.342 10.251,28.587 6.971,28.587 C1.893,28.587 0.411,24.952 0.411,21.798 C0.411,12.605 3.691,1.595 14.271,1.595 C15.541,1.595 16.864,2.128 17.816,2.931 L18.133,1.54 L25.701,1.54 L25.701,1.542 Z" id="Shape"></path>
            </g>
            <g id="Clipped" transform="translate(74.000000, 13.000000)">
                <path d="M17.204,4.337 C17.204,3.056 16.411,2.521 15.247,2.521 C10.806,2.521 7.946,11.234 7.946,17.005 C7.946,20.159 8.581,22.726 11.808,22.726 C15.564,22.726 18.579,20.481 21.013,17.701 L22.812,17.701 C20.272,20.587 17.416,27.269 8.052,27.269 C3.659,27.269 0.804,24.81 0.804,18.502 C0.804,10.698 4.138,0.382 14.4,0.382 C17.256,0.382 20.219,1.13 20.219,4.07 C20.219,4.658 20.165,5.139 19.954,5.834 C19.688,5.674 19.266,5.514 18.631,5.514 C18.155,5.514 17.626,5.62 16.939,5.834 C17.1,5.246 17.204,4.765 17.204,4.337" id="Path"></path>
            </g>
            <g id="Clipped" transform="translate(93.000000, 13.000000)" fill-rule="nonzero">
                <path d="M7.728,19.358 C7.728,22.564 9.474,23.152 10.795,23.152 C12.013,23.152 13.176,21.977 14.181,20.48 C14.235,19.945 14.339,19.358 14.498,18.715 L17.46,4.55 C16.613,3.802 15.608,3.588 14.868,3.588 C10.901,3.589 7.728,12.088 7.728,19.358 Z M25.925,0.542 L22.116,18.716 C22.012,19.305 21.905,19.893 21.905,20.373 C21.905,21.549 22.434,22.403 24.55,22.403 C26.666,22.403 29.417,19.41 31.533,17.7 L33.332,17.7 C30.898,20.159 24.921,27.268 20.794,27.268 C17.356,27.268 15.028,25.985 14.34,23.205 C12.753,25.397 10.372,27.589 7.147,27.589 C2.068,27.589 0.585,23.954 0.585,20.8 C0.585,11.607 3.865,0.597 14.445,0.597 C15.716,0.597 17.038,1.13 17.99,1.933 L18.307,0.542 L25.925,0.542 Z" id="Shape"></path>
            </g>
            <g id="Clipped" transform="translate(120.000000, 4.000000)">
                <path d="M14.85,0.852 L8.766,29.715 C8.607,30.518 8.5,30.997 8.5,31.425 C8.5,32.602 9.082,33.404 11.146,33.404 C13.262,33.404 16.013,30.411 18.128,28.701 L19.928,28.701 C17.494,31.16 11.516,38.268 7.39,38.268 C3.317,38.268 0.829,36.451 0.829,32.442 C0.829,31.64 0.934,30.732 1.145,29.715 L7.018,1.92 L14.85,0.852 Z" id="Path"></path>
            </g>
            <g id="Clipped" transform="translate(135.000000, 12.000000)" fill-rule="nonzero">
                <path d="M5.405,21.052 C4.771,21.052 4.134,20.893 3.5,20.571 C3.5,23.726 5.192,25.115 7.997,25.115 C9.796,25.115 12.389,22.87 12.389,18.755 C12.389,15.441 10.007,12.608 9.903,5.926 C9.057,8.545 8.316,11.966 7.152,14.64 C8.422,15.067 8.898,16.029 8.898,17.632 C8.843,19.662 7.257,21.052 5.405,21.052 Z M16.25,0.58 L16.25,1.328 C16.25,10.147 20.111,12.714 20.111,18.967 C20.111,23.939 16.99,28.269 9.848,28.269 C3.764,28.269 0.8,26.504 0.8,21.267 C0.8,17.043 2.704,14.584 4.821,14.424 C6.62,10.949 7.677,6.246 8.577,2.184 L16.25,0.58 Z" id="Shape"></path>
            </g>
        </g>
    </g>
</svg>