<?xml version="1.0" encoding="UTF-8"?>
<svg width="282px" height="284px" viewBox="0 0 282 284" version="1.1" xmlns="http://www.w3.org/2000/svg" xmlns:xlink="http://www.w3.org/1999/xlink">
    <!-- Generator: Sketch 52.5 (67469) - http://www.bohemiancoding.com/sketch -->
    <title>logo</title>
    <desc>Created with Sketch.</desc>
    <defs>
        <rect id="path-1" x="0.5" y="0.535" width="280.73" height="283.465"></rect>
        <rect id="path-3" x="0.5" y="0.535" width="280.73" height="283.465"></rect>
        <rect id="path-5" x="0.5" y="0.535" width="280.73" height="283.465"></rect>
        <rect id="path-7" x="0.5" y="0.535" width="280.73" height="283.465"></rect>
        <rect id="path-9" x="0.5" y="0.535" width="280.73" height="283.465"></rect>
        <rect id="path-11" x="0.5" y="0.535" width="280.73" height="283.465"></rect>
        <rect id="path-13" x="0.5" y="0.535" width="280.73" height="283.465"></rect>
        <rect id="path-15" x="0.5" y="0.535" width="280.73" height="283.465"></rect>
        <rect id="path-17" x="0.5" y="0.535" width="280.73" height="283.465"></rect>
        <rect id="path-19" x="0.5" y="0.535" width="280.73" height="283.465"></rect>
        <rect id="path-21" x="0.5" y="0.535" width="280.73" height="283.465"></rect>
        <rect id="path-23" x="0.5" y="0.535" width="280.73" height="283.465"></rect>
        <rect id="path-25" x="0.5" y="0.535" width="280.73" height="283.465"></rect>
        <rect id="path-27" x="0.5" y="0.535" width="280.73" height="283.465"></rect>
        <rect id="path-29" x="0.5" y="0.535" width="280.73" height="283.465"></rect>
        <rect id="path-31" x="0.5" y="0.535" width="280.73" height="283.465"></rect>
        <rect id="path-33" x="0.5" y="0.535" width="280.73" height="283.465"></rect>
        <rect id="path-35" x="0.5" y="0.535" width="280.73" height="283.465"></rect>
    </defs>
    <g id="Page-1" stroke="none" stroke-width="1" fill="none" fill-rule="evenodd">
        <g id="logo">
            <g id="Group">
                <g id="Clipped">
                    <mask id="mask-2" fill="white">
                        <use xlink:href="#path-1"></use>
                    </mask>
                    <g id="SVGID_1_"></g>
                    <path d="M140.87,275.611 C67.933,275.611 8.81,215.912 8.81,142.268 C8.81,68.621 67.933,8.924 140.87,8.924 C213.795,8.924 272.916,68.62 272.916,142.268 C272.916,215.912 213.795,275.611 140.87,275.611 M140.87,0.535 C63.344,0.535 0.5,63.99 0.5,142.269 C0.5,220.535 63.344,284 140.87,284 C218.39,284 281.23,220.535 281.23,142.27 C281.23,63.99 218.389,0.535 140.87,0.535" id="Shape" fill="#302C29" fill-rule="nonzero" mask="url(#mask-2)"></path>
                </g>
                <g id="Clipped">
                    <mask id="mask-4" fill="white">
                        <use xlink:href="#path-3"></use>
                    </mask>
                    <g id="SVGID_3_"></g>
                    <path d="M140.87,16.176 C72.014,16.176 15.991,72.74 15.991,142.27 C15.991,211.801 72.013,268.367 140.87,268.367 C209.725,268.367 265.746,211.803 265.746,142.27 C265.746,72.74 209.726,16.176 140.87,16.176 M140.87,270.717 C70.725,270.717 13.662,213.092 13.662,142.27 C13.662,71.44 70.725,13.823 140.87,13.823 C211.016,13.823 268.077,71.44 268.077,142.27 C268.077,213.092 211.015,270.717 140.87,270.717" id="Shape" fill="#302C29" fill-rule="nonzero" mask="url(#mask-4)"></path>
                </g>
                <g id="Clipped">
                    <mask id="mask-6" fill="white">
                        <use xlink:href="#path-5"></use>
                    </mask>
                    <g id="SVGID_5_"></g>
                    <path d="M185.501,230.943 C184.682,232.822 182.599,233.99 180.061,233.99 C178.832,233.99 177.544,233.703 176.35,233.178 C174.492,232.336 173.001,231.011 172.149,229.387 C171.327,227.838 171.211,226.226 171.809,224.849 C172.63,222.961 174.724,221.789 177.255,221.789 C178.487,221.789 179.772,222.074 180.974,222.611 C182.828,223.431 184.321,224.785 185.169,226.398 C185.988,227.939 186.109,229.562 185.501,230.943 M140.847,209.717 C140.003,209.717 139.311,209.025 139.311,208.164 C139.311,207.308 140.003,206.617 140.847,206.617 C141.696,206.617 142.386,207.306 142.386,208.164 C142.386,209.023 141.695,209.717 140.847,209.717 M110.962,228.254 C110.115,229.865 108.627,231.213 106.764,232.037 C105.566,232.576 104.282,232.853 103.049,232.853 C100.859,232.853 98.966,231.968 97.988,230.478 C97.834,230.273 97.709,230.041 97.606,229.795 C97.003,228.42 97.125,226.814 97.94,225.26 C98.789,223.64 100.284,222.3 102.147,221.467 C103.337,220.941 104.623,220.655 105.852,220.655 C108.39,220.655 110.477,221.825 111.298,223.708 C111.322,223.761 111.334,223.805 111.353,223.839 L111.212,224.372 L111.493,224.229 C111.855,225.494 111.68,226.898 110.962,228.254 M186.56,225.656 C185.541,223.722 183.783,222.123 181.605,221.15 C180.209,220.539 178.709,220.203 177.254,220.203 C174.644,220.203 172.4,221.263 171.082,223.015 L171.074,222.984 L146.247,207.701 L174.816,183.412 L140.794,204.348 L108.061,184.207 L135.544,207.572 L112.116,221.984 C110.812,220.17 108.532,219.054 105.852,219.054 C104.405,219.054 102.904,219.398 101.506,220.013 C99.325,220.986 97.567,222.57 96.548,224.513 C95.499,226.502 95.362,228.601 96.159,230.437 L96.994,231.787 C98.326,233.459 100.538,234.445 103.048,234.445 C104.495,234.445 105.998,234.119 107.398,233.494 C109.58,232.521 111.337,230.931 112.354,228.998 C113.299,227.199 113.496,225.306 112.941,223.607 L131.103,215.619 L137.404,215.224 L140.969,212.189 L145.48,216.019 L151.773,216.412 L170.244,224.543 C169.598,226.281 169.772,228.271 170.755,230.142 C171.772,232.074 173.534,233.664 175.714,234.637 C177.11,235.258 178.612,235.582 180.061,235.582 C183.229,235.582 185.874,234.052 186.947,231.584 C187.745,229.752 187.61,227.641 186.56,225.656" id="Shape" fill="#302C29" fill-rule="nonzero" mask="url(#mask-6)"></path>
                </g>
            </g>
            <path d="M263.207,145.64 L258.793,143.296 L254.386,145.64 L255.216,140.674 L251.655,137.158 L256.59,136.431 L258.793,131.919 L261,136.431 L265.934,137.158 L262.367,140.674 L263.207,145.64 Z M234.439,116.576 L240.16,140.386 L234.439,164.115 L275.111,164.115 L275.111,116.576 L234.439,116.576 Z" id="Shape" fill="#302C29" fill-rule="nonzero"></path>
            <path d="M19.372,140.687 L15.807,137.17 L20.738,136.447 L22.947,131.93 L25.151,136.447 L30.083,137.17 L26.518,140.687 L27.356,145.649 L22.948,143.307 L18.53,145.649 L19.372,140.687 Z M6.625,116.586 L6.625,164.129 L47.301,164.129 L41.58,140.401 L47.301,116.586 L6.625,116.586 Z" id="Shape" fill="#302C29" fill-rule="nonzero"></path>
            <g id="Group">
                <g id="Clipped">
                    <mask id="mask-8" fill="white">
                        <use xlink:href="#path-7"></use>
                    </mask>
                    <g id="SVGID_7_"></g>
                    <path d="M83.049,85.203 L79.293,103.057 C84.583,102.629 88.551,95.574 88.551,89.908 C88.551,85.953 86.647,82.638 81.991,82.638 C73.421,82.638 68.289,87.502 68.289,95.627 C68.289,98.353 68.977,98.78 69.03,99.261 C65.38,99.261 63.369,97.925 63.369,94.076 C63.369,86.968 73.103,80.178 81.938,80.178 C90.614,80.178 94.422,85.203 94.422,90.709 C94.422,97.497 88.655,105.034 79.133,105.034 L78.87,105.034 L75.643,120.267 L68.025,120.267 L75.219,86.272 L83.049,85.203 Z" id="Path" fill="#302C29" mask="url(#mask-8)"></path>
                </g>
                <g id="Clipped">
                    <mask id="mask-10" fill="white">
                        <use xlink:href="#path-9"></use>
                    </mask>
                    <g id="SVGID_9_"></g>
                    <path d="M122.145,113.052 C121.51,113.052 120.928,112.893 120.292,112.624 C120.24,112.893 120.187,113.212 120.187,113.48 C120.187,115.778 122.673,117.114 124.737,117.114 C126.536,117.114 129.128,114.869 129.128,110.754 C129.128,107.44 126.747,104.607 126.642,97.925 C125.795,100.544 125.055,103.965 123.891,106.639 C125.162,107.067 125.638,108.028 125.638,109.631 C125.637,111.662 123.996,113.052 122.145,113.052 Z M109.289,97.551 C108.443,96.803 107.438,96.589 106.698,96.589 C102.73,96.589 99.555,105.088 99.555,112.359 C99.555,115.565 101.302,116.153 102.623,116.153 C103.84,116.153 105.004,114.924 106.062,113.426 C106.062,112.893 106.166,112.305 106.326,111.716 L109.289,97.551 Z M117.701,93.542 L113.945,111.716 C113.787,112.519 113.68,113.159 113.68,113.694 C113.68,114.817 114.104,115.404 115.321,115.404 C115.902,115.404 116.696,114.656 117.542,113.426 C117.542,108.989 119.447,106.531 121.563,106.37 C123.467,102.897 124.684,98.14 125.583,94.076 L133.254,92.473 L133.254,93.222 C133.254,102.04 136.799,104.713 136.853,110.966 L136.799,112.089 C138.279,110.753 139.603,109.362 140.238,108.614 L141.613,110.432 C140.132,111.607 138.015,113.479 135.898,115.295 C134.523,118.234 131.507,120.267 126.587,120.267 C121.721,120.267 118.863,119.145 117.91,116.043 C116.006,118.502 114.102,120.267 112.568,120.267 C108.865,120.267 106.854,118.663 106.22,116.098 C104.631,118.342 102.251,120.587 98.971,120.587 C93.893,120.587 92.411,116.952 92.411,113.798 C92.411,104.605 95.691,93.595 106.271,93.595 C107.541,93.595 108.864,94.128 109.816,94.931 L110.133,93.54 L117.701,93.54 L117.701,93.542 Z" id="Shape" fill="#302C29" fill-rule="nonzero" mask="url(#mask-10)"></path>
                </g>
                <g id="Clipped">
                    <mask id="mask-12" fill="white">
                        <use xlink:href="#path-11"></use>
                    </mask>
                    <g id="SVGID_11_"></g>
                    <path d="M154.204,97.337 C154.204,96.056 153.411,95.521 152.247,95.521 C147.806,95.521 144.946,104.234 144.946,110.005 C144.946,113.159 145.581,115.726 148.808,115.726 C152.564,115.726 155.579,113.481 158.013,110.701 L159.812,110.701 C157.272,113.587 154.416,120.269 145.052,120.269 C140.659,120.269 137.804,117.81 137.804,111.502 C137.804,103.698 141.138,93.382 151.4,93.382 C154.256,93.382 157.219,94.13 157.219,97.07 C157.219,97.658 157.165,98.139 156.954,98.834 C156.688,98.674 156.266,98.514 155.631,98.514 C155.155,98.514 154.626,98.62 153.939,98.834 C154.1,98.246 154.204,97.765 154.204,97.337" id="Path" fill="#302C29" mask="url(#mask-12)"></path>
                </g>
                <g id="Clipped">
                    <mask id="mask-14" fill="white">
                        <use xlink:href="#path-13"></use>
                    </mask>
                    <g id="SVGID_13_"></g>
                    <path d="M163.728,112.358 C163.728,115.564 165.474,116.152 166.795,116.152 C168.013,116.152 169.176,114.977 170.181,113.48 C170.235,112.945 170.339,112.358 170.498,111.715 L173.46,97.55 C172.613,96.802 171.608,96.588 170.868,96.588 C166.901,96.589 163.728,105.088 163.728,112.358 Z M181.925,93.542 L178.116,111.716 C178.012,112.305 177.905,112.893 177.905,113.373 C177.905,114.549 178.434,115.403 180.55,115.403 C182.666,115.403 185.417,112.41 187.533,110.7 L189.332,110.7 C186.898,113.159 180.921,120.268 176.794,120.268 C173.356,120.268 171.028,118.985 170.34,116.205 C168.753,118.397 166.372,120.589 163.147,120.589 C158.068,120.589 156.585,116.954 156.585,113.8 C156.585,104.607 159.865,93.597 170.445,93.597 C171.716,93.597 173.038,94.13 173.99,94.933 L174.307,93.542 L181.925,93.542 Z" id="Shape" fill="#302C29" fill-rule="nonzero" mask="url(#mask-14)"></path>
                </g>
                <g id="Clipped">
                    <mask id="mask-16" fill="white">
                        <use xlink:href="#path-15"></use>
                    </mask>
                    <g id="SVGID_15_"></g>
                    <path d="M197.85,82.852 L191.766,111.715 C191.607,112.518 191.5,112.997 191.5,113.425 C191.5,114.602 192.082,115.404 194.146,115.404 C196.262,115.404 199.013,112.411 201.128,110.701 L202.928,110.701 C200.494,113.16 194.516,120.268 190.39,120.268 C186.317,120.268 183.829,118.451 183.829,114.442 C183.829,113.64 183.934,112.732 184.145,111.715 L190.018,83.92 L197.85,82.852 Z" id="Path" fill="#302C29" mask="url(#mask-16)"></path>
                </g>
                <g id="Clipped">
                    <mask id="mask-18" fill="white">
                        <use xlink:href="#path-17"></use>
                    </mask>
                    <g id="SVGID_17_"></g>
                    <path d="M203.405,113.052 C202.771,113.052 202.134,112.893 201.5,112.571 C201.5,115.726 203.192,117.115 205.997,117.115 C207.796,117.115 210.389,114.87 210.389,110.755 C210.389,107.441 208.007,104.608 207.903,97.926 C207.057,100.545 206.316,103.966 205.152,106.64 C206.422,107.067 206.898,108.029 206.898,109.632 C206.843,111.662 205.257,113.052 203.405,113.052 Z M214.25,92.58 L214.25,93.328 C214.25,102.147 218.111,104.714 218.111,110.967 C218.111,115.939 214.99,120.269 207.848,120.269 C201.764,120.269 198.8,118.504 198.8,113.267 C198.8,109.043 200.704,106.584 202.821,106.424 C204.62,102.949 205.677,98.246 206.577,94.184 L214.25,92.58 Z" id="Shape" fill="#302C29" fill-rule="nonzero" mask="url(#mask-18)"></path>
                </g>
            </g>
            <g id="Group">
                <g id="Clipped">
                    <mask id="mask-20" fill="white">
                        <use xlink:href="#path-19"></use>
                    </mask>
                    <g id="SVGID_19_"></g>
                    <path d="M89.325,142.727 L86.731,142.961 C86.665,143.433 86.499,145.111 86.499,146.523 L86.499,158.988 C86.499,160.399 86.665,162.078 86.731,162.549 L89.725,162.784 L89.493,164.766 C89.493,164.766 87.298,164.597 84.638,164.597 C83.973,164.597 80.713,164.766 80.713,164.766 L80.546,163.084 L83.174,162.547 C83.24,162.111 83.474,160.566 83.474,159.994 L83.474,153.61 L72.463,153.61 L72.463,158.986 C72.463,160.397 72.63,162.076 72.695,162.547 L75.688,162.782 L75.455,164.764 C75.455,164.764 73.26,164.595 70.601,164.595 C69.935,164.595 66.675,164.764 66.675,164.764 L66.508,163.082 L69.135,162.545 C69.202,162.109 69.436,160.564 69.436,159.992 L69.436,145.512 C69.436,144.942 69.203,143.396 69.135,142.958 L66.574,142.556 L66.741,140.742 C66.741,140.742 69.934,140.91 70.599,140.91 C73.259,140.91 75.156,140.742 75.156,140.742 L75.289,142.724 L72.694,142.958 C72.628,143.43 72.462,145.108 72.462,146.52 L72.462,151.896 L83.471,151.728 L83.471,145.512 C83.471,144.942 83.238,143.396 83.171,142.958 L80.609,142.556 L80.775,140.742 C80.775,140.742 83.969,140.91 84.633,140.91 C87.295,140.91 89.191,140.742 89.191,140.742 L89.325,142.727 Z" id="Path" fill="#302C29" mask="url(#mask-20)"></path>
                </g>
                <g id="Clipped">
                    <mask id="mask-22" fill="white">
                        <use xlink:href="#path-21"></use>
                    </mask>
                    <g id="SVGID_21_"></g>
                    <path d="M97.247,157.711 L101.57,157.61 L99.408,151.127 L97.247,157.711 Z M108.188,164.633 C108.188,164.633 106.559,164.599 105.694,164.599 C104.164,164.599 101.47,164.734 101.47,164.734 L101.368,163.255 L103.131,162.852 L102.632,160.667 L102.133,159.258 L96.711,159.258 L96.015,161.508 L95.782,162.852 L97.478,163.122 L97.346,164.635 C97.346,164.635 95.881,164.601 94.95,164.601 C93.587,164.601 91.424,164.736 91.424,164.736 L91.324,163.257 L92.788,162.921 L93.886,160.568 L98.642,146.828 L100.603,146.559 L105.891,161.038 L106.756,162.886 L108.319,163.121 L108.188,164.633 Z" id="Shape" fill="#302C29" fill-rule="nonzero" mask="url(#mask-22)"></path>
                </g>
                <g id="Clipped">
                    <mask id="mask-24" fill="white">
                        <use xlink:href="#path-23"></use>
                    </mask>
                    <g id="SVGID_23_"></g>
                    <path d="M117.438,148.404 L115.542,148.573 C115.476,148.942 115.342,150.152 115.342,150.992 L115.342,160.13 C115.342,161.274 115.475,162.549 115.542,162.919 L117.639,163.086 L117.472,164.732 C117.472,164.732 115.642,164.597 113.281,164.597 C112.549,164.597 110.387,164.732 110.387,164.732 L110.254,163.253 L112.184,162.917 C112.249,162.614 112.416,161.337 112.416,160.9 L112.416,150.821 C112.416,150.082 112.249,148.94 112.184,148.571 L110.288,148.268 L110.421,146.689 C110.421,146.689 112.549,146.824 113.316,146.824 C115.644,146.824 117.339,146.689 117.339,146.689 L117.438,148.404 Z" id="Path" fill="#302C29" mask="url(#mask-24)"></path>
                </g>
                <g id="Clipped">
                    <mask id="mask-26" fill="white">
                        <use xlink:href="#path-25"></use>
                    </mask>
                    <g id="SVGID_25_"></g>
                    <path d="M125.721,148.237 C125.621,148.942 125.522,150.217 125.522,150.992 L125.522,155.628 C126.053,155.662 126.551,155.662 126.918,155.662 C129.513,155.662 131.008,154.385 131.008,151.866 C131.008,149.379 129.513,148.136 126.95,148.136 C126.719,148.135 126.253,148.169 125.721,148.237 M134.037,151.831 C134.037,154.185 132.573,155.863 130.478,156.703 C131.707,159.056 133.072,161.104 133.205,161.306 C133.405,161.643 133.973,162.381 134.37,162.919 L136.033,163.086 L135.866,164.732 C135.866,164.732 133.837,164.597 131.476,164.597 C131.476,164.597 130.445,162.28 130.112,161.674 L127.716,157.238 L127.449,157.238 C126.85,157.238 126.186,157.205 125.521,157.172 L125.521,160.128 C125.521,161.272 125.687,162.547 125.72,162.917 L127.848,163.084 L127.681,164.73 C127.681,164.73 125.853,164.595 123.492,164.595 C122.727,164.595 120.564,164.73 120.564,164.73 L120.463,163.251 L122.393,162.915 C122.427,162.612 122.625,161.335 122.625,160.898 L122.625,150.819 C122.625,150.08 122.427,149.006 122.393,148.569 L120.497,148.266 L120.631,146.687 C120.631,146.687 122.229,146.788 123.225,146.822 C124.656,146.788 126.917,146.587 128.181,146.587 C131.741,146.591 134.037,148.404 134.037,151.831" id="Shape" fill="#302C29" fill-rule="nonzero" mask="url(#mask-26)"></path>
                </g>
                <g id="Clipped">
                    <mask id="mask-28" fill="white">
                        <use xlink:href="#path-27"></use>
                    </mask>
                    <g id="SVGID_27_"></g>
                    <path d="M140.292,159.559 L140.292,161.004 C140.292,161.238 140.459,161.91 140.625,162.414 C141.392,162.75 142.522,163.119 143.785,163.119 C145.681,163.119 146.977,162.144 146.977,160.364 C146.977,156.399 138.33,156.904 138.33,151.26 C138.33,148.203 140.792,146.455 144.119,146.455 C145.848,146.455 147.809,146.858 149.506,147.295 L149.142,151.528 L147.412,151.36 L147.412,149.983 C147.412,149.781 147.245,149.31 147.079,148.773 C146.148,148.37 145.417,148.203 144.318,148.203 C142.722,148.203 141.491,149.076 141.491,150.724 C141.491,154.453 150.206,154.048 150.206,159.793 C150.206,163.188 147.38,164.967 143.852,164.967 C140.394,164.967 138.033,163.692 138.033,163.692 L138.431,159.423 L140.292,159.559 Z" id="Path" fill="#302C29" mask="url(#mask-28)"></path>
                </g>
                <g id="Clipped">
                    <mask id="mask-30" fill="white">
                        <use xlink:href="#path-29"></use>
                    </mask>
                    <g id="SVGID_29_"></g>
                    <path d="M165.839,150.992 C165.774,150.622 165.672,149.749 165.572,149.38 C165.539,149.213 165.339,148.908 165.139,148.641 C164.607,148.575 163.81,148.506 163.077,148.506 L161.515,148.506 C161.448,148.978 161.315,150.22 161.315,150.992 L161.315,160.131 C161.315,161.274 161.448,162.549 161.515,162.919 L163.641,163.086 L163.478,164.733 C163.478,164.733 161.614,164.597 159.285,164.597 C158.52,164.597 156.36,164.733 156.36,164.733 L156.226,163.254 L158.156,162.918 C158.221,162.615 158.388,161.338 158.388,160.901 L158.388,150.822 C158.388,150.117 158.221,148.941 158.156,148.505 L156.66,148.505 C155.928,148.505 155.128,148.572 154.564,148.64 C154.362,148.909 154.164,149.212 154.164,149.379 C154.064,149.748 153.935,150.621 153.897,150.991 L152.268,150.89 L152.435,147.026 L152.933,146.588 C152.933,146.588 155.36,146.823 155.894,146.823 L163.81,146.823 C164.34,146.823 166.769,146.588 166.769,146.588 L167.268,147.026 L167.435,150.89 L165.839,150.992 Z" id="Path" fill="#302C29" mask="url(#mask-30)"></path>
                </g>
                <g id="Clipped">
                    <mask id="mask-32" fill="white">
                        <use xlink:href="#path-31"></use>
                    </mask>
                    <g id="SVGID_31_"></g>
                    <path d="M183.901,148.506 C183.901,148.506 182.87,149.749 182.271,150.893 L178.513,157.948 L178.513,160.132 C178.513,161.276 178.679,162.551 178.711,162.921 L180.84,163.088 L180.674,164.734 C180.674,164.734 178.845,164.599 176.485,164.599 C175.754,164.599 173.589,164.734 173.589,164.734 L173.455,163.255 L175.387,162.919 C175.418,162.616 175.618,161.339 175.618,160.902 L175.618,158.214 L171.394,150.388 C170.927,149.514 170.03,148.538 170.03,148.538 L168.367,148.303 L168.5,146.791 C168.5,146.791 170.264,146.825 171.161,146.825 C172.558,146.825 175.485,146.69 175.485,146.69 L175.618,148.168 L173.789,148.572 C173.789,148.572 174.022,149.647 174.686,150.756 L177.347,155.694 L180.273,149.916 C180.505,149.479 180.806,148.572 180.806,148.572 L179.11,148.301 L179.21,146.789 C179.21,146.789 180.808,146.823 181.737,146.823 C183.034,146.823 185.462,146.688 185.462,146.688 L185.597,148.166 L183.901,148.506 Z" id="Path" fill="#302C29" mask="url(#mask-32)"></path>
                </g>
                <g id="Clipped">
                    <mask id="mask-34" fill="white">
                        <use xlink:href="#path-33"></use>
                    </mask>
                    <g id="SVGID_33_"></g>
                    <path d="M194.848,148.404 L192.917,148.573 C192.851,148.942 192.719,150.152 192.719,150.992 L192.719,160.13 C192.719,161.172 192.851,162.448 192.917,162.885 L195.777,162.885 C196.543,162.885 197.407,162.751 197.938,162.652 C198.205,162.249 198.438,161.843 198.47,161.676 C198.571,161.274 198.77,160.467 198.835,160.064 L200.397,160.199 L200,164.23 L199.501,164.7 C199.501,164.7 197.072,164.599 196.541,164.599 L190.687,164.599 C189.92,164.599 187.759,164.734 187.759,164.734 L187.657,163.255 L189.587,162.919 C189.62,162.616 189.82,161.339 189.82,160.902 L189.82,150.823 C189.82,150.084 189.62,148.942 189.587,148.573 L187.691,148.27 L187.825,146.691 C187.825,146.691 189.954,146.826 190.686,146.826 C193.045,146.826 194.743,146.691 194.743,146.691 L194.848,148.404 Z" id="Path" fill="#302C29" mask="url(#mask-34)"></path>
                </g>
                <g id="Clipped">
                    <mask id="mask-36" fill="white">
                        <use xlink:href="#path-35"></use>
                    </mask>
                    <g id="SVGID_35_"></g>
                    <path d="M202.566,146.691 C202.566,146.691 204.761,146.826 205.425,146.826 L211.613,146.826 C212.144,146.826 214.573,146.591 214.573,146.591 L215.071,147.029 L215.238,150.658 L213.608,150.792 C213.575,150.391 213.474,149.751 213.34,149.381 C213.34,149.214 213.142,148.91 212.907,148.61 C212.376,148.577 211.577,148.508 210.845,148.508 L207.618,148.508 C207.584,149.012 207.452,150.255 207.452,150.994 L207.452,154.589 C207.85,154.622 208.25,154.622 208.416,154.622 L210.18,154.622 C210.711,154.622 211.611,154.421 211.611,154.421 L211.843,152.775 L213.172,152.877 C213.172,152.877 213.14,154.488 213.14,154.992 C213.14,156.268 213.205,157.915 213.205,157.915 L211.843,158.084 L211.611,156.438 C211.611,156.438 210.18,156.303 209.648,156.303 L208.484,156.303 C208.285,156.303 207.818,156.303 207.454,156.369 L207.454,160.132 C207.454,161.141 207.554,162.383 207.62,162.888 L211.18,162.888 C211.978,162.888 212.81,162.753 213.34,162.654 C213.608,162.251 213.807,161.915 213.872,161.678 C213.974,161.275 214.204,160.469 214.238,160.066 L215.802,160.201 L215.402,164.232 L214.903,164.703 C214.903,164.703 212.474,164.601 211.943,164.601 L205.423,164.601 C204.658,164.601 202.496,164.736 202.496,164.736 L202.395,163.257 L204.324,162.921 C204.39,162.618 204.557,161.341 204.557,160.904 L204.557,150.825 C204.557,150.086 204.39,148.978 204.324,148.575 L202.428,148.272 L202.566,146.691 Z" id="Path" fill="#302C29" mask="url(#mask-36)"></path>
                </g>
            </g>
            <rect id="Rectangle" fill="#302C29" x="65.91" y="131.597" width="149.875" height="1.979"></rect>
        </g>
    </g>
</svg>