<?xml version="1.0" encoding="utf-8"?>
<!-- Generator: Adobe Illustrator 15.0.2, SVG Export Plug-In . SVG Version: 6.00 Build 0)  -->
<!DOCTYPE svg PUBLIC "-//W3C//DTD SVG 1.1//EN" "http://www.w3.org/Graphics/SVG/1.1/DTD/svg11.dtd">
<svg version="1.1" id="Ebene_1" xmlns="http://www.w3.org/2000/svg" xmlns:xlink="http://www.w3.org/1999/xlink" x="0px" y="0px"
	 width="311.811px" height="311.811px" viewBox="0 0 311.811 311.811" enable-background="new 0 0 311.811 311.811"
	 xml:space="preserve">
<g id="Ebene_2">
</g>
<g id="Ebene_1_1_">
	<g>
		<g>
			<defs>
				<rect id="SVGID_1_" x="20.5" y="11.535" width="280.73" height="283.465"/>
			</defs>
			<clipPath id="SVGID_2_">
				<use xlink:href="#SVGID_1_"  overflow="visible"/>
			</clipPath>
			<path clip-path="url(#SVGID_2_)" fill="#FFF" d="M160.87,286.611c-72.937,0-132.06-59.699-132.06-133.343
				c0-73.647,59.123-133.344,132.06-133.344c72.925,0,132.046,59.696,132.046,133.344
				C292.916,226.912,233.795,286.611,160.87,286.611 M160.87,11.535C83.344,11.535,20.5,74.99,20.5,153.269
				C20.5,231.535,83.344,295,160.87,295c77.52,0,140.36-63.465,140.36-141.73C301.23,74.99,238.389,11.535,160.87,11.535"/>
		</g>
		<g>
			<defs>
				<rect id="SVGID_3_" x="20.5" y="11.535" width="280.73" height="283.465"/>
			</defs>
			<clipPath id="SVGID_4_">
				<use xlink:href="#SVGID_3_"  overflow="visible"/>
			</clipPath>
			<path clip-path="url(#SVGID_4_)" fill="#FFF" d="M160.87,27.176c-68.856,0-124.879,56.564-124.879,126.094
				c0,69.531,56.022,126.097,124.879,126.097c68.855,0,124.876-56.564,124.876-126.097C285.746,83.74,229.726,27.176,160.87,27.176
				 M160.87,281.717c-70.145,0-127.208-57.625-127.208-128.447c0-70.83,57.063-128.447,127.208-128.447
				c70.146,0,127.207,57.617,127.207,128.447C288.077,224.092,231.015,281.717,160.87,281.717"/>
		</g>
		<g>
			<defs>
				<rect id="SVGID_5_" x="20.5" y="11.535" width="280.73" height="283.465"/>
			</defs>
			<clipPath id="SVGID_6_">
				<use xlink:href="#SVGID_5_"  overflow="visible"/>
			</clipPath>
			<path clip-path="url(#SVGID_6_)" fill="#FFF" d="M205.501,241.943c-0.819,1.879-2.902,3.047-5.44,3.047
				c-1.229,0-2.517-0.287-3.711-0.812c-1.858-0.842-3.349-2.167-4.201-3.791c-0.822-1.549-0.938-3.161-0.34-4.538
				c0.821-1.888,2.915-3.06,5.446-3.06c1.232,0,2.517,0.285,3.719,0.822c1.854,0.82,3.347,2.174,4.195,3.787
				C205.988,238.939,206.109,240.562,205.501,241.943 M160.847,220.717c-0.844,0-1.536-0.692-1.536-1.553
				c0-0.856,0.692-1.547,1.536-1.547c0.849,0,1.539,0.689,1.539,1.547C162.386,220.023,161.695,220.717,160.847,220.717
				 M130.962,239.254c-0.847,1.611-2.335,2.959-4.198,3.783c-1.198,0.539-2.482,0.816-3.715,0.816c-2.19,0-4.083-0.885-5.061-2.375
				c-0.154-0.205-0.279-0.437-0.382-0.683c-0.603-1.375-0.481-2.981,0.334-4.535c0.849-1.62,2.344-2.96,4.207-3.793
				c1.19-0.526,2.476-0.812,3.705-0.812c2.538,0,4.625,1.17,5.446,3.053c0.024,0.053,0.036,0.097,0.055,0.131l-0.141,0.533
				l0.281-0.143C131.855,236.494,131.68,237.898,130.962,239.254 M206.56,236.656c-1.019-1.934-2.777-3.533-4.955-4.506
				c-1.396-0.611-2.896-0.947-4.351-0.947c-2.61,0-4.854,1.06-6.172,2.812l-0.008-0.031l-24.827-15.283l28.569-24.289
				l-34.022,20.936l-32.733-20.141l27.483,23.365l-23.428,14.412c-1.304-1.814-3.584-2.93-6.264-2.93
				c-1.447,0-2.948,0.344-4.346,0.959c-2.181,0.973-3.939,2.557-4.958,4.5c-1.049,1.989-1.186,4.088-0.389,5.924l0.835,1.35
				c1.332,1.672,3.544,2.658,6.054,2.658c1.447,0,2.95-0.326,4.35-0.951c2.182-0.973,3.939-2.563,4.956-4.496
				c0.945-1.799,1.142-3.692,0.587-5.391l18.162-7.988l6.301-0.395l3.565-3.035l4.511,3.83l6.293,0.393l18.471,8.131
				c-0.646,1.738-0.472,3.728,0.511,5.599c1.017,1.932,2.779,3.522,4.959,4.495c1.396,0.621,2.898,0.945,4.347,0.945
				c3.168,0,5.813-1.53,6.886-3.998C207.745,240.752,207.61,238.641,206.56,236.656"/>
		</g>
	</g>
	<path fill="#FFF" d="M283.207,156.64l-4.414-2.344l-4.407,2.344l0.83-4.966l-3.561-3.516l4.935-0.727l2.203-4.512l2.207,4.512
		l4.934,0.727l-3.567,3.516L283.207,156.64z M254.439,127.576l5.721,23.81l-5.721,23.729h40.672v-47.539H254.439z"/>
	<path fill="#FFF" d="M39.372,151.687l-3.565-3.517l4.931-0.723l2.209-4.517l2.204,4.517l4.932,0.723l-3.565,3.517l0.838,4.962
		l-4.408-2.342l-4.418,2.342L39.372,151.687z M26.625,127.586v47.543h40.676l-5.721-23.728l5.721-23.815H26.625z"/>
	<g>
		<g>
			<defs>
				<rect id="SVGID_7_" x="20.5" y="11.535" width="280.73" height="283.465"/>
			</defs>
			<clipPath id="SVGID_8_">
				<use xlink:href="#SVGID_7_"  overflow="visible"/>
			</clipPath>
			<path clip-path="url(#SVGID_8_)" fill="#FFF" d="M103.049,96.203l-3.756,17.854c5.29-0.428,9.258-7.483,9.258-13.149
				c0-3.955-1.904-7.27-6.56-7.27c-8.57,0-13.702,4.864-13.702,12.989c0,2.726,0.688,3.153,0.741,3.634
				c-3.65,0-5.661-1.336-5.661-5.185c0-7.108,9.734-13.898,18.569-13.898c8.676,0,12.484,5.025,12.484,10.531
				c0,6.788-5.767,14.325-15.289,14.325H98.87l-3.227,15.233h-7.618l7.194-33.995L103.049,96.203z"/>
		</g>
		<g>
			<defs>
				<rect id="SVGID_9_" x="20.5" y="11.535" width="280.73" height="283.465"/>
			</defs>
			<clipPath id="SVGID_10_">
				<use xlink:href="#SVGID_9_"  overflow="visible"/>
			</clipPath>
			<path clip-path="url(#SVGID_10_)" fill="#FFF" d="M142.145,124.052c-0.635,0-1.217-0.159-1.853-0.428
				c-0.052,0.269-0.105,0.588-0.105,0.856c0,2.298,2.486,3.634,4.55,3.634c1.799,0,4.391-2.245,4.391-6.36
				c0-3.314-2.381-6.147-2.486-12.829c-0.847,2.619-1.587,6.04-2.751,8.714c1.271,0.428,1.747,1.389,1.747,2.992
				C145.637,122.662,143.996,124.052,142.145,124.052 M129.289,108.551c-0.846-0.748-1.851-0.962-2.591-0.962
				c-3.968,0-7.143,8.499-7.143,15.77c0,3.206,1.747,3.794,3.068,3.794c1.217,0,2.381-1.229,3.439-2.727
				c0-0.533,0.104-1.121,0.264-1.71L129.289,108.551z M137.701,104.542l-3.756,18.174c-0.158,0.803-0.265,1.443-0.265,1.978
				c0,1.123,0.424,1.71,1.641,1.71c0.581,0,1.375-0.748,2.221-1.978c0-4.437,1.905-6.895,4.021-7.056
				c1.904-3.473,3.121-8.23,4.02-12.294l7.671-1.603v0.749c0,8.818,3.545,11.491,3.599,17.744l-0.054,1.123
				c1.48-1.336,2.804-2.727,3.439-3.475l1.375,1.818c-1.481,1.175-3.598,3.047-5.715,4.863c-1.375,2.939-4.391,4.972-9.311,4.972
				c-4.866,0-7.724-1.122-8.677-4.224c-1.904,2.459-3.808,4.224-5.342,4.224c-3.703,0-5.714-1.604-6.348-4.169
				c-1.589,2.244-3.969,4.489-7.249,4.489c-5.078,0-6.56-3.635-6.56-6.789c0-9.193,3.28-20.203,13.86-20.203
				c1.27,0,2.593,0.533,3.545,1.336l0.317-1.391H137.701z"/>
		</g>
		<g>
			<defs>
				<rect id="SVGID_11_" x="20.5" y="11.535" width="280.73" height="283.465"/>
			</defs>
			<clipPath id="SVGID_12_">
				<use xlink:href="#SVGID_11_"  overflow="visible"/>
			</clipPath>
			<path clip-path="url(#SVGID_12_)" fill="#FFF" d="M174.204,108.337c0-1.281-0.793-1.816-1.957-1.816
				c-4.441,0-7.301,8.713-7.301,14.484c0,3.154,0.635,5.721,3.862,5.721c3.756,0,6.771-2.245,9.205-5.025h1.799
				c-2.54,2.886-5.396,9.568-14.76,9.568c-4.393,0-7.248-2.459-7.248-8.767c0-7.804,3.334-18.12,13.596-18.12
				c2.856,0,5.819,0.748,5.819,3.688c0,0.588-0.054,1.069-0.265,1.764c-0.266-0.16-0.688-0.32-1.323-0.32
				c-0.476,0-1.005,0.106-1.692,0.32C174.1,109.246,174.204,108.765,174.204,108.337"/>
		</g>
		<g>
			<defs>
				<rect id="SVGID_13_" x="20.5" y="11.535" width="280.73" height="283.465"/>
			</defs>
			<clipPath id="SVGID_14_">
				<use xlink:href="#SVGID_13_"  overflow="visible"/>
			</clipPath>
			<path clip-path="url(#SVGID_14_)" fill="#FFF" d="M183.728,123.358c0,3.206,1.746,3.794,3.067,3.794
				c1.218,0,2.381-1.175,3.386-2.672c0.054-0.535,0.158-1.122,0.317-1.765l2.962-14.165c-0.847-0.748-1.852-0.962-2.592-0.962
				C186.901,107.589,183.728,116.088,183.728,123.358 M201.925,104.542l-3.809,18.174c-0.104,0.589-0.211,1.177-0.211,1.657
				c0,1.176,0.529,2.03,2.645,2.03c2.116,0,4.867-2.993,6.983-4.703h1.799c-2.434,2.459-8.411,9.568-12.538,9.568
				c-3.438,0-5.766-1.283-6.454-4.063c-1.587,2.192-3.968,4.384-7.193,4.384c-5.079,0-6.562-3.635-6.562-6.789
				c0-9.193,3.28-20.203,13.86-20.203c1.271,0,2.593,0.533,3.545,1.336l0.317-1.391H201.925z"/>
		</g>
		<g>
			<defs>
				<rect id="SVGID_15_" x="20.5" y="11.535" width="280.73" height="283.465"/>
			</defs>
			<clipPath id="SVGID_16_">
				<use xlink:href="#SVGID_15_"  overflow="visible"/>
			</clipPath>
			<path clip-path="url(#SVGID_16_)" fill="#FFF" d="M217.85,93.852l-6.084,28.863c-0.159,0.803-0.266,1.282-0.266,1.71
				c0,1.177,0.582,1.979,2.646,1.979c2.116,0,4.867-2.993,6.982-4.703h1.8c-2.434,2.459-8.412,9.567-12.538,9.567
				c-4.073,0-6.561-1.817-6.561-5.826c0-0.802,0.105-1.71,0.316-2.727l5.873-27.795L217.85,93.852z"/>
		</g>
		<g>
			<defs>
				<rect id="SVGID_17_" x="20.5" y="11.535" width="280.73" height="283.465"/>
			</defs>
			<clipPath id="SVGID_18_">
				<use xlink:href="#SVGID_17_"  overflow="visible"/>
			</clipPath>
			<path clip-path="url(#SVGID_18_)" fill="#FFF" d="M223.405,124.052c-0.634,0-1.271-0.159-1.905-0.481
				c0,3.155,1.692,4.544,4.497,4.544c1.799,0,4.392-2.245,4.392-6.36c0-3.314-2.382-6.147-2.486-12.829
				c-0.846,2.619-1.587,6.04-2.751,8.714c1.27,0.427,1.746,1.389,1.746,2.992C226.843,122.662,225.257,124.052,223.405,124.052
				 M234.25,103.58v0.748c0,8.819,3.861,11.386,3.861,17.639c0,4.972-3.121,9.302-10.263,9.302c-6.084,0-9.048-1.765-9.048-7.002
				c0-4.224,1.904-6.683,4.021-6.843c1.799-3.475,2.856-8.178,3.756-12.24L234.25,103.58z"/>
		</g>
	</g>
	<g>
		<g>
			<defs>
				<rect id="SVGID_19_" x="20.5" y="11.535" width="280.73" height="283.465"/>
			</defs>
			<clipPath id="SVGID_20_">
				<use xlink:href="#SVGID_19_"  overflow="visible"/>
			</clipPath>
			<path clip-path="url(#SVGID_20_)" fill="#FFF" d="M109.325,153.727l-2.594,0.234c-0.066,0.472-0.232,2.15-0.232,3.562v12.465
				c0,1.411,0.166,3.09,0.232,3.561l2.994,0.235l-0.232,1.982c0,0-2.195-0.169-4.855-0.169c-0.665,0-3.925,0.169-3.925,0.169
				l-0.167-1.682l2.628-0.537c0.066-0.436,0.3-1.981,0.3-2.553v-6.384H92.463v5.376c0,1.411,0.167,3.09,0.232,3.561l2.993,0.235
				l-0.233,1.982c0,0-2.195-0.169-4.854-0.169c-0.666,0-3.926,0.169-3.926,0.169l-0.167-1.682l2.627-0.537
				c0.067-0.436,0.301-1.981,0.301-2.553v-14.48c0-0.57-0.233-2.116-0.301-2.554l-2.561-0.402l0.167-1.814
				c0,0,3.193,0.168,3.858,0.168c2.66,0,4.557-0.168,4.557-0.168l0.133,1.982l-2.595,0.234c-0.066,0.472-0.232,2.15-0.232,3.562
				v5.376l11.009-0.168v-6.216c0-0.57-0.233-2.116-0.3-2.554l-2.562-0.402l0.166-1.814c0,0,3.194,0.168,3.858,0.168
				c2.662,0,4.558-0.168,4.558-0.168L109.325,153.727z"/>
		</g>
		<g>
			<defs>
				<rect id="SVGID_21_" x="20.5" y="11.535" width="280.73" height="283.465"/>
			</defs>
			<clipPath id="SVGID_22_">
				<use xlink:href="#SVGID_21_"  overflow="visible"/>
			</clipPath>
			<path clip-path="url(#SVGID_22_)" fill="#FFF" d="M117.247,168.711l4.323-0.101l-2.162-6.483L117.247,168.711z
				 M128.188,175.633c0,0-1.629-0.034-2.494-0.034c-1.53,0-4.224,0.135-4.224,0.135l-0.102-1.479l1.763-0.403l-0.499-2.185
				l-0.499-1.409h-5.422l-0.696,2.25l-0.233,1.344l1.696,0.27l-0.132,1.513c0,0-1.465-0.034-2.396-0.034
				c-1.363,0-3.526,0.135-3.526,0.135l-0.1-1.479l1.464-0.336l1.098-2.353l4.756-13.74l1.961-0.269l5.288,14.479l0.865,1.848
				l1.563,0.235L128.188,175.633z"/>
		</g>
		<g>
			<defs>
				<rect id="SVGID_23_" x="20.5" y="11.535" width="280.73" height="283.465"/>
			</defs>
			<clipPath id="SVGID_24_">
				<use xlink:href="#SVGID_23_"  overflow="visible"/>
			</clipPath>
			<path clip-path="url(#SVGID_24_)" fill="#FFF" d="M137.438,159.404l-1.896,0.169c-0.066,0.369-0.2,1.579-0.2,2.419v9.138
				c0,1.144,0.133,2.419,0.2,2.789l2.097,0.167l-0.167,1.646c0,0-1.83-0.135-4.191-0.135c-0.732,0-2.894,0.135-2.894,0.135
				l-0.133-1.479l1.93-0.336c0.065-0.303,0.232-1.58,0.232-2.017v-10.079c0-0.739-0.167-1.881-0.232-2.25l-1.896-0.303l0.133-1.579
				c0,0,2.128,0.135,2.895,0.135c2.328,0,4.023-0.135,4.023-0.135L137.438,159.404z"/>
		</g>
		<g>
			<defs>
				<rect id="SVGID_25_" x="20.5" y="11.535" width="280.73" height="283.465"/>
			</defs>
			<clipPath id="SVGID_26_">
				<use xlink:href="#SVGID_25_"  overflow="visible"/>
			</clipPath>
			<path clip-path="url(#SVGID_26_)" fill="#FFF" d="M145.721,159.237c-0.1,0.705-0.199,1.98-0.199,2.755v4.636
				c0.531,0.034,1.029,0.034,1.396,0.034c2.595,0,4.09-1.277,4.09-3.796c0-2.487-1.495-3.73-4.058-3.73
				C146.719,159.135,146.253,159.169,145.721,159.237 M154.037,162.831c0,2.354-1.464,4.032-3.559,4.872
				c1.229,2.353,2.594,4.401,2.727,4.603c0.2,0.337,0.768,1.075,1.165,1.613l1.663,0.167l-0.167,1.646c0,0-2.029-0.135-4.39-0.135
				c0,0-1.031-2.317-1.364-2.923l-2.396-4.436h-0.267c-0.599,0-1.263-0.033-1.928-0.066v2.956c0,1.144,0.166,2.419,0.199,2.789
				l2.128,0.167l-0.167,1.646c0,0-1.828-0.135-4.189-0.135c-0.765,0-2.928,0.135-2.928,0.135l-0.101-1.479l1.93-0.336
				c0.034-0.303,0.232-1.58,0.232-2.017v-10.079c0-0.739-0.198-1.813-0.232-2.25l-1.896-0.303l0.134-1.579
				c0,0,1.598,0.101,2.594,0.135c1.431-0.034,3.692-0.235,4.956-0.235C151.741,157.591,154.037,159.404,154.037,162.831"/>
		</g>
		<g>
			<defs>
				<rect id="SVGID_27_" x="20.5" y="11.535" width="280.73" height="283.465"/>
			</defs>
			<clipPath id="SVGID_28_">
				<use xlink:href="#SVGID_27_"  overflow="visible"/>
			</clipPath>
			<path clip-path="url(#SVGID_28_)" fill="#FFF" d="M160.292,170.559v1.445c0,0.234,0.167,0.906,0.333,1.41
				c0.767,0.336,1.897,0.705,3.16,0.705c1.896,0,3.192-0.975,3.192-2.755c0-3.965-8.647-3.46-8.647-9.104
				c0-3.057,2.462-4.805,5.789-4.805c1.729,0,3.69,0.403,5.387,0.84l-0.364,4.233l-1.73-0.168v-1.377
				c0-0.202-0.167-0.673-0.333-1.21c-0.931-0.403-1.662-0.57-2.761-0.57c-1.596,0-2.827,0.873-2.827,2.521
				c0,3.729,8.715,3.324,8.715,9.069c0,3.395-2.826,5.174-6.354,5.174c-3.458,0-5.819-1.275-5.819-1.275l0.398-4.269
				L160.292,170.559z"/>
		</g>
		<g>
			<defs>
				<rect id="SVGID_29_" x="20.5" y="11.535" width="280.73" height="283.465"/>
			</defs>
			<clipPath id="SVGID_30_">
				<use xlink:href="#SVGID_29_"  overflow="visible"/>
			</clipPath>
			<path clip-path="url(#SVGID_30_)" fill="#FFF" d="M185.839,161.992c-0.065-0.37-0.167-1.243-0.267-1.612
				c-0.033-0.167-0.233-0.472-0.433-0.739c-0.532-0.066-1.329-0.135-2.062-0.135h-1.562c-0.067,0.472-0.2,1.714-0.2,2.486v9.139
				c0,1.143,0.133,2.418,0.2,2.788l2.126,0.167l-0.163,1.647c0,0-1.864-0.136-4.193-0.136c-0.765,0-2.925,0.136-2.925,0.136
				l-0.134-1.479l1.93-0.336c0.065-0.303,0.232-1.58,0.232-2.017v-10.079c0-0.705-0.167-1.881-0.232-2.317h-1.496
				c-0.732,0-1.532,0.067-2.096,0.135c-0.202,0.269-0.4,0.572-0.4,0.739c-0.1,0.369-0.229,1.242-0.267,1.612l-1.629-0.101
				l0.167-3.864l0.498-0.438c0,0,2.427,0.235,2.961,0.235h7.916c0.53,0,2.959-0.235,2.959-0.235l0.499,0.438l0.167,3.864
				L185.839,161.992z"/>
		</g>
		<g>
			<defs>
				<rect id="SVGID_31_" x="20.5" y="11.535" width="280.73" height="283.465"/>
			</defs>
			<clipPath id="SVGID_32_">
				<use xlink:href="#SVGID_31_"  overflow="visible"/>
			</clipPath>
			<path clip-path="url(#SVGID_32_)" fill="#FFF" d="M203.901,159.506c0,0-1.031,1.243-1.63,2.387l-3.758,7.055v2.184
				c0,1.144,0.166,2.419,0.198,2.789l2.129,0.167l-0.166,1.646c0,0-1.829-0.135-4.189-0.135c-0.731,0-2.896,0.135-2.896,0.135
				l-0.134-1.479l1.932-0.336c0.031-0.303,0.231-1.58,0.231-2.017v-2.688l-4.224-7.826c-0.467-0.874-1.364-1.85-1.364-1.85
				l-1.663-0.235l0.133-1.512c0,0,1.764,0.034,2.661,0.034c1.397,0,4.324-0.135,4.324-0.135l0.133,1.478l-1.829,0.404
				c0,0,0.233,1.075,0.897,2.184l2.661,4.938l2.926-5.778c0.232-0.437,0.533-1.344,0.533-1.344l-1.696-0.271l0.1-1.512
				c0,0,1.598,0.034,2.527,0.034c1.297,0,3.725-0.135,3.725-0.135l0.135,1.478L203.901,159.506z"/>
		</g>
		<g>
			<defs>
				<rect id="SVGID_33_" x="20.5" y="11.535" width="280.73" height="283.465"/>
			</defs>
			<clipPath id="SVGID_34_">
				<use xlink:href="#SVGID_33_"  overflow="visible"/>
			</clipPath>
			<path clip-path="url(#SVGID_34_)" fill="#FFF" d="M214.848,159.404l-1.931,0.169c-0.066,0.369-0.198,1.579-0.198,2.419v9.138
				c0,1.042,0.132,2.318,0.198,2.755h2.86c0.766,0,1.63-0.134,2.161-0.233c0.267-0.403,0.5-0.809,0.532-0.976
				c0.101-0.402,0.3-1.209,0.365-1.612l1.562,0.135l-0.397,4.031l-0.499,0.47c0,0-2.429-0.101-2.96-0.101h-5.854
				c-0.767,0-2.928,0.135-2.928,0.135l-0.102-1.479l1.93-0.336c0.033-0.303,0.233-1.58,0.233-2.017v-10.079
				c0-0.739-0.2-1.881-0.233-2.25l-1.896-0.303l0.134-1.579c0,0,2.129,0.135,2.861,0.135c2.359,0,4.057-0.135,4.057-0.135
				L214.848,159.404z"/>
		</g>
		<g>
			<defs>
				<rect id="SVGID_35_" x="20.5" y="11.535" width="280.73" height="283.465"/>
			</defs>
			<clipPath id="SVGID_36_">
				<use xlink:href="#SVGID_35_"  overflow="visible"/>
			</clipPath>
			<path clip-path="url(#SVGID_36_)" fill="#FFF" d="M222.566,157.691c0,0,2.195,0.135,2.859,0.135h6.188
				c0.531,0,2.96-0.235,2.96-0.235l0.498,0.438l0.167,3.629l-1.63,0.134c-0.033-0.401-0.134-1.041-0.268-1.411
				c0-0.167-0.198-0.471-0.433-0.771c-0.531-0.033-1.33-0.102-2.062-0.102h-3.227c-0.034,0.504-0.166,1.747-0.166,2.486v3.595
				c0.398,0.033,0.798,0.033,0.964,0.033h1.764c0.531,0,1.431-0.201,1.431-0.201l0.232-1.646l1.329,0.102
				c0,0-0.032,1.611-0.032,2.115c0,1.276,0.065,2.923,0.065,2.923l-1.362,0.169l-0.232-1.646c0,0-1.431-0.135-1.963-0.135h-1.164
				c-0.199,0-0.666,0-1.03,0.066v3.763c0,1.009,0.1,2.251,0.166,2.756h3.56c0.798,0,1.63-0.135,2.16-0.234
				c0.268-0.403,0.467-0.739,0.532-0.976c0.102-0.403,0.332-1.209,0.366-1.612l1.564,0.135l-0.4,4.031l-0.499,0.471
				c0,0-2.429-0.102-2.96-0.102h-6.52c-0.765,0-2.927,0.135-2.927,0.135l-0.101-1.479l1.929-0.336
				c0.066-0.303,0.233-1.58,0.233-2.017v-10.079c0-0.739-0.167-1.847-0.233-2.25l-1.896-0.303L222.566,157.691z"/>
		</g>
	</g>
	<rect x="85.91" y="142.597" fill="#FFF" width="149.875" height="1.979"/>
</g>
</svg>
