<?xml version="1.0" encoding="utf-8"?>
<!-- Generator: Adobe Illustrator 22.1.0, SVG Export Plug-In . SVG Version: 6.00 Build 0)  -->
<svg version="1.1" id="Ebene_1" xmlns="http://www.w3.org/2000/svg" xmlns:xlink="http://www.w3.org/1999/xlink" x="0px" y="0px"
	 viewBox="0 0 16 16" style="enable-background:new 0 0 16 16;" xml:space="preserve">
<style type="text/css">
	.st0{clip-path:url(#SVGID_2_);}
	.st1{clip-path:url(#SVGID_4_);}
	.st2{clip-path:url(#SVGID_6_);}
	.st3{clip-path:url(#SVGID_8_);}
	.st4{clip-path:url(#SVGID_10_);}
	.st5{clip-path:url(#SVGID_12_);}
	.st6{clip-path:url(#SVGID_14_);}
	.st7{clip-path:url(#SVGID_16_);}
	.st8{clip-path:url(#SVGID_18_);}
	.st9{clip-path:url(#SVGID_20_);}
	.st10{clip-path:url(#SVGID_22_);}
	.st11{clip-path:url(#SVGID_24_);}
	.st12{clip-path:url(#SVGID_26_);}
	.st13{clip-path:url(#SVGID_28_);}
	.st14{clip-path:url(#SVGID_30_);}
	.st15{clip-path:url(#SVGID_32_);}
	.st16{clip-path:url(#SVGID_34_);}
	.st17{clip-path:url(#SVGID_36_);}
</style>
<g id="Ebene_1_1_">
	<g>
		<g>
			<g>
				<defs>
					<rect id="SVGID_1_" x="0.9" y="0.8" width="14.2" height="14.3"/>
				</defs>
				<clipPath id="SVGID_2_">
					<use xlink:href="#SVGID_1_"  style="overflow:visible;"/>
				</clipPath>
				<path class="st0" d="M8,14.7c-3.7,0-6.7-3-6.7-6.7c0-3.7,3-6.7,6.7-6.7c3.7,0,6.7,3,6.7,6.7C14.7,11.7,11.7,14.7,8,14.7 M8,0.8
					C4.1,0.8,0.9,4,0.9,7.9c0,4,3.2,7.2,7.1,7.2c3.9,0,7.1-3.2,7.1-7.2C15.1,4,11.9,0.8,8,0.8"/>
			</g>
		</g>
		<g>
			<g>
				<defs>
					<rect id="SVGID_3_" x="0.9" y="0.8" width="14.2" height="14.3"/>
				</defs>
				<clipPath id="SVGID_4_">
					<use xlink:href="#SVGID_3_"  style="overflow:visible;"/>
				</clipPath>
				<path class="st1" d="M8,1.6c-3.5,0-6.3,2.9-6.3,6.4c0,3.5,2.8,6.4,6.3,6.4c3.5,0,6.3-2.9,6.3-6.4C14.3,4.4,11.5,1.6,8,1.6
					 M8,14.4c-3.5,0-6.4-2.9-6.4-6.5c0-3.6,2.9-6.5,6.4-6.5c3.5,0,6.4,2.9,6.4,6.5C14.4,11.5,11.5,14.4,8,14.4"/>
			</g>
		</g>
		<g>
			<g>
				<defs>
					<rect id="SVGID_5_" x="0.9" y="0.8" width="14.2" height="14.3"/>
				</defs>
				<clipPath id="SVGID_6_">
					<use xlink:href="#SVGID_5_"  style="overflow:visible;"/>
				</clipPath>
				<path class="st2" d="M10.3,12.4c0,0.1-0.1,0.2-0.3,0.2c-0.1,0-0.1,0-0.2,0c-0.1,0-0.2-0.1-0.2-0.2c0-0.1,0-0.2,0-0.2
					C9.6,12,9.7,12,9.8,12c0.1,0,0.1,0,0.2,0c0.1,0,0.2,0.1,0.2,0.2C10.3,12.3,10.3,12.4,10.3,12.4 M8,11.4C8,11.4,7.9,11.3,8,11.4
					c-0.1-0.1,0-0.2,0-0.2C8,11.2,8.1,11.2,8,11.4C8.1,11.3,8,11.4,8,11.4 M6.5,12.3c0,0.1-0.1,0.1-0.2,0.2c-0.1,0-0.1,0-0.2,0
					c-0.1,0-0.2,0-0.3-0.1c0,0,0,0,0,0c0-0.1,0-0.2,0-0.2c0-0.1,0.1-0.1,0.2-0.2c0.1,0,0.1,0,0.2,0c0.1,0,0.2,0.1,0.3,0.2
					c0,0,0,0,0,0l0,0l0,0C6.5,12.2,6.5,12.2,6.5,12.3 M10.3,12.2c-0.1-0.1-0.1-0.2-0.3-0.2c-0.1,0-0.1,0-0.2,0
					c-0.1,0-0.2,0.1-0.3,0.1l0,0l-1.3-0.8L9.7,10L8,11.1l-1.7-1l1.4,1.2L6.5,12c-0.1-0.1-0.2-0.1-0.3-0.1c-0.1,0-0.1,0-0.2,0
					c-0.1,0-0.2,0.1-0.3,0.2c-0.1,0.1-0.1,0.2,0,0.3l0,0.1c0.1,0.1,0.2,0.1,0.3,0.1c0.1,0,0.1,0,0.2,0c0.1,0,0.2-0.1,0.3-0.2
					c0-0.1,0.1-0.2,0-0.3l0.9-0.4l0.3,0L8,11.5l0.2,0.2l0.3,0l0.9,0.4c0,0.1,0,0.2,0,0.3c0.1,0.1,0.1,0.2,0.3,0.2c0.1,0,0.1,0,0.2,0
					c0.2,0,0.3-0.1,0.3-0.2C10.4,12.4,10.4,12.3,10.3,12.2"/>
			</g>
		</g>
	</g>
	<path d="M14.2,8.1L14,8l-0.2,0.1l0-0.3l-0.2-0.2l0.2,0L14,7.4l0.1,0.2l0.2,0l-0.2,0.2L14.2,8.1z M12.7,6.6L13,7.9l-0.3,1.2h2.1V6.6
		H12.7z"/>
	<path d="M1.9,7.9L1.7,7.7l0.2,0L2,7.4l0.1,0.2l0.2,0L2.2,7.9l0,0.3L2,8L1.8,8.1L1.9,7.9z M1.2,6.6v2.4h2.1L3,7.9l0.3-1.2H1.2z"/>
	<g>
		<g>
			<g>
				<defs>
					<rect id="SVGID_7_" x="0.9" y="0.8" width="14.2" height="14.3"/>
				</defs>
				<clipPath id="SVGID_8_">
					<use xlink:href="#SVGID_7_"  style="overflow:visible;"/>
				</clipPath>
				<path class="st3" d="M5.1,5.1L4.9,6c0.3,0,0.5-0.4,0.5-0.7c0-0.2-0.1-0.4-0.3-0.4c-0.4,0-0.7,0.2-0.7,0.7c0,0.1,0,0.2,0,0.2
					c-0.2,0-0.3-0.1-0.3-0.3c0-0.4,0.5-0.7,0.9-0.7c0.4,0,0.6,0.3,0.6,0.5c0,0.3-0.3,0.7-0.8,0.7h0L4.7,6.8H4.3l0.4-1.7L5.1,5.1z"/>
			</g>
		</g>
		<g>
			<g>
				<defs>
					<rect id="SVGID_9_" x="0.9" y="0.8" width="14.2" height="14.3"/>
				</defs>
				<clipPath id="SVGID_10_">
					<use xlink:href="#SVGID_9_"  style="overflow:visible;"/>
				</clipPath>
				<path class="st4" d="M7.1,6.5C7,6.5,7,6.5,7.1,6.5C7,6.5,7,6.5,7.1,6.5C7,6.6,7.1,6.7,7.2,6.7c0.1,0,0.2-0.1,0.2-0.3
					c0-0.2-0.1-0.3-0.1-0.6c0,0.1-0.1,0.3-0.1,0.4c0.1,0,0.1,0.1,0.1,0.2C7.2,6.4,7.1,6.5,7.1,6.5 M6.4,5.7c0,0-0.1,0-0.1,0
					c-0.2,0-0.4,0.4-0.4,0.8c0,0.2,0.1,0.2,0.2,0.2c0.1,0,0.1-0.1,0.2-0.1c0,0,0-0.1,0-0.1L6.4,5.7z M6.8,5.5L6.6,6.4
					c0,0,0,0.1,0,0.1c0,0.1,0,0.1,0.1,0.1c0,0,0.1,0,0.1-0.1c0-0.2,0.1-0.3,0.2-0.4C7.1,6,7.2,5.7,7.2,5.5l0.4-0.1v0
					c0,0.4,0.2,0.6,0.2,0.9l0,0.1C7.9,6.4,7.9,6.3,8,6.2L8,6.3C8,6.4,7.9,6.5,7.7,6.6C7.7,6.7,7.5,6.8,7.3,6.8
					C7,6.8,6.9,6.8,6.8,6.6C6.7,6.7,6.6,6.8,6.6,6.8c-0.2,0-0.3-0.1-0.3-0.2C6.2,6.7,6,6.9,5.9,6.9c-0.3,0-0.3-0.2-0.3-0.3
					c0-0.5,0.2-1,0.7-1c0.1,0,0.1,0,0.2,0.1l0-0.1L6.8,5.5L6.8,5.5z"/>
			</g>
		</g>
		<g>
			<g>
				<defs>
					<rect id="SVGID_11_" x="0.9" y="0.8" width="14.2" height="14.3"/>
				</defs>
				<clipPath id="SVGID_12_">
					<use xlink:href="#SVGID_11_"  style="overflow:visible;"/>
				</clipPath>
				<path class="st5" d="M8.7,5.7C8.7,5.6,8.6,5.6,8.7,5.7C8.4,5.6,8.2,6,8.2,6.3c0,0.2,0,0.3,0.2,0.3c0.2,0,0.3-0.1,0.5-0.3H9
					C8.8,6.5,8.7,6.8,8.2,6.8C8,6.8,7.8,6.7,7.8,6.4C7.8,6,8,5.5,8.5,5.5c0.1,0,0.3,0,0.3,0.2c0,0,0,0.1,0,0.1
					C8.8,5.7,8.8,5.7,8.7,5.7C8.7,5.7,8.7,5.7,8.7,5.7C8.7,5.7,8.7,5.7,8.7,5.7"/>
			</g>
		</g>
		<g>
			<g>
				<defs>
					<rect id="SVGID_13_" x="0.9" y="0.8" width="14.2" height="14.3"/>
				</defs>
				<clipPath id="SVGID_14_">
					<use xlink:href="#SVGID_13_"  style="overflow:visible;"/>
				</clipPath>
				<path class="st6" d="M9.2,6.4c0,0.2,0.1,0.2,0.2,0.2c0.1,0,0.1-0.1,0.2-0.1c0,0,0-0.1,0-0.1l0.1-0.7c0,0-0.1,0-0.1,0
					C9.3,5.6,9.2,6.1,9.2,6.4 M10.1,5.5L9.9,6.4c0,0,0,0.1,0,0.1c0,0.1,0,0.1,0.1,0.1c0.1,0,0.2-0.2,0.4-0.2h0.1
					C10.3,6.5,10,6.8,9.8,6.8c-0.2,0-0.3-0.1-0.3-0.2C9.4,6.7,9.3,6.9,9.1,6.9c-0.3,0-0.3-0.2-0.3-0.3c0-0.5,0.2-1,0.7-1
					c0.1,0,0.1,0,0.2,0.1l0-0.1H10.1z"/>
			</g>
		</g>
		<g>
			<g>
				<defs>
					<rect id="SVGID_15_" x="0.9" y="0.8" width="14.2" height="14.3"/>
				</defs>
				<clipPath id="SVGID_16_">
					<use xlink:href="#SVGID_15_"  style="overflow:visible;"/>
				</clipPath>
				<path class="st7" d="M10.9,4.9l-0.3,1.5c0,0,0,0.1,0,0.1c0,0.1,0,0.1,0.1,0.1c0.1,0,0.2-0.2,0.4-0.2h0.1
					c-0.1,0.1-0.4,0.5-0.6,0.5c-0.2,0-0.3-0.1-0.3-0.3c0,0,0-0.1,0-0.1L10.5,5L10.9,4.9z"/>
			</g>
		</g>
		<g>
			<g>
				<defs>
					<rect id="SVGID_17_" x="0.9" y="0.8" width="14.2" height="14.3"/>
				</defs>
				<clipPath id="SVGID_18_">
					<use xlink:href="#SVGID_17_"  style="overflow:visible;"/>
				</clipPath>
				<path class="st8" d="M11.2,6.5C11.1,6.5,11.1,6.5,11.2,6.5c-0.1,0.1,0,0.2,0.1,0.2c0.1,0,0.2-0.1,0.2-0.3c0-0.2-0.1-0.3-0.1-0.6
					c0,0.1-0.1,0.3-0.1,0.4c0.1,0,0.1,0.1,0.1,0.2C11.3,6.4,11.3,6.5,11.2,6.5 M11.7,5.4L11.7,5.4c0,0.5,0.2,0.6,0.2,0.9
					c0,0.3-0.2,0.5-0.5,0.5c-0.3,0-0.5-0.1-0.5-0.4c0-0.2,0.1-0.3,0.2-0.3c0.1-0.2,0.1-0.4,0.2-0.6L11.7,5.4z"/>
			</g>
		</g>
	</g>
	<g>
		<g>
			<g>
				<defs>
					<rect id="SVGID_19_" x="0.9" y="0.8" width="14.2" height="14.3"/>
				</defs>
				<clipPath id="SVGID_20_">
					<use xlink:href="#SVGID_19_"  style="overflow:visible;"/>
				</clipPath>
				<path class="st9" d="M5.4,8L5.3,8c0,0,0,0.1,0,0.2v0.6c0,0.1,0,0.2,0,0.2l0.2,0l0,0.1c0,0-0.1,0-0.2,0c0,0-0.2,0-0.2,0L5,9
					l0.1,0c0,0,0-0.1,0-0.1V8.5H4.5v0.3c0,0.1,0,0.2,0,0.2l0.2,0l0,0.1c0,0-0.1,0-0.2,0c0,0-0.2,0-0.2,0l0-0.1l0.1,0
					c0,0,0-0.1,0-0.1V8.1c0,0,0-0.1,0-0.1L4.2,8l0-0.1c0,0,0.2,0,0.2,0c0.1,0,0.2,0,0.2,0l0,0.1L4.6,8c0,0,0,0.1,0,0.2v0.3l0.6,0
					V8.1c0,0,0-0.1,0-0.1L5,8l0-0.1c0,0,0.2,0,0.2,0c0.1,0,0.2,0,0.2,0L5.4,8z"/>
			</g>
		</g>
		<g>
			<g>
				<defs>
					<rect id="SVGID_21_" x="0.9" y="0.8" width="14.2" height="14.3"/>
				</defs>
				<clipPath id="SVGID_22_">
					<use xlink:href="#SVGID_21_"  style="overflow:visible;"/>
				</clipPath>
				<path class="st10" d="M5.8,8.7l0.2,0L5.9,8.4L5.8,8.7z M6.3,9.1c0,0-0.1,0-0.1,0c-0.1,0-0.2,0-0.2,0L6,9l0.1,0l0-0.1l0-0.1H5.8
					l0,0.1l0,0.1l0.1,0l0,0.1c0,0-0.1,0-0.1,0c-0.1,0-0.2,0-0.2,0l0-0.1l0.1,0l0.1-0.1l0.2-0.7l0.1,0l0.3,0.7L6.3,9.1L6.3,9.1
					L6.3,9.1z"/>
			</g>
		</g>
		<g>
			<g>
				<defs>
					<rect id="SVGID_23_" x="0.9" y="0.8" width="14.2" height="14.3"/>
				</defs>
				<clipPath id="SVGID_24_">
					<use xlink:href="#SVGID_23_"  style="overflow:visible;"/>
				</clipPath>
				<path class="st11" d="M6.8,8.3L6.8,8.3c-0.1,0-0.1,0.1-0.1,0.1v0.5c0,0.1,0,0.1,0,0.1l0.1,0l0,0.1c0,0-0.1,0-0.2,0
					c0,0-0.1,0-0.1,0l0-0.1l0.1,0c0,0,0-0.1,0-0.1V8.4c0,0,0-0.1,0-0.1l-0.1,0l0-0.1c0,0,0.1,0,0.1,0C6.7,8.2,6.8,8.2,6.8,8.3
					L6.8,8.3z"/>
			</g>
		</g>
		<g>
			<g>
				<defs>
					<rect id="SVGID_25_" x="0.9" y="0.8" width="14.2" height="14.3"/>
				</defs>
				<clipPath id="SVGID_26_">
					<use xlink:href="#SVGID_25_"  style="overflow:visible;"/>
				</clipPath>
				<path class="st12" d="M7.2,8.2c0,0,0,0.1,0,0.1v0.2c0,0,0.1,0,0.1,0c0.1,0,0.2-0.1,0.2-0.2C7.5,8.3,7.4,8.2,7.2,8.2
					C7.3,8.2,7.3,8.2,7.2,8.2 M7.7,8.4c0,0.1-0.1,0.2-0.2,0.2c0.1,0.1,0.1,0.2,0.1,0.2c0,0,0,0.1,0.1,0.1l0.1,0l0,0.1
					c0,0-0.1,0-0.2,0c0,0-0.1-0.1-0.1-0.1L7.3,8.7h0c0,0-0.1,0-0.1,0v0.1c0,0.1,0,0.1,0,0.1l0.1,0l0,0.1c0,0-0.1,0-0.2,0
					c0,0-0.1,0-0.1,0L7,9l0.1,0c0,0,0-0.1,0-0.1V8.4c0,0,0-0.1,0-0.1L7,8.3l0-0.1c0,0,0.1,0,0.1,0c0.1,0,0.2,0,0.3,0
					C7.5,8.2,7.7,8.3,7.7,8.4"/>
			</g>
		</g>
		<g>
			<g>
				<defs>
					<rect id="SVGID_27_" x="0.9" y="0.8" width="14.2" height="14.3"/>
				</defs>
				<clipPath id="SVGID_28_">
					<use xlink:href="#SVGID_27_"  style="overflow:visible;"/>
				</clipPath>
				<path class="st13" d="M8,8.8L8,8.8C8,8.9,8,8.9,8,9c0,0,0.1,0,0.2,0c0.1,0,0.2,0,0.2-0.1c0-0.2-0.4-0.2-0.4-0.5
					c0-0.2,0.1-0.2,0.3-0.2c0.1,0,0.2,0,0.3,0l0,0.2l-0.1,0V8.3c0,0,0,0,0-0.1c0,0-0.1,0-0.1,0C8.1,8.2,8,8.3,8,8.4
					c0,0.2,0.4,0.2,0.4,0.5c0,0.2-0.1,0.3-0.3,0.3C8,9.1,7.9,9,7.9,9L8,8.8L8,8.8z"/>
			</g>
		</g>
		<g>
			<g>
				<defs>
					<rect id="SVGID_29_" x="0.9" y="0.8" width="14.2" height="14.3"/>
				</defs>
				<clipPath id="SVGID_30_">
					<use xlink:href="#SVGID_29_"  style="overflow:visible;"/>
				</clipPath>
				<path class="st14" d="M9.3,8.4C9.3,8.4,9.3,8.3,9.3,8.4c0-0.1,0-0.1,0-0.1c0,0-0.1,0-0.1,0H9c0,0,0,0.1,0,0.1v0.5C9,8.9,9,9,9,9
					l0.1,0l0,0.1c0,0-0.1,0-0.2,0c0,0-0.1,0-0.1,0l0-0.1l0.1,0c0,0,0-0.1,0-0.1V8.4c0,0,0-0.1,0-0.1H8.8c0,0-0.1,0-0.1,0
					c0,0,0,0,0,0c0,0,0,0.1,0,0.1l-0.1,0l0-0.2l0,0c0,0,0.1,0,0.1,0h0.4c0,0,0.1,0,0.1,0l0,0L9.3,8.4L9.3,8.4z"/>
			</g>
		</g>
		<g>
			<g>
				<defs>
					<rect id="SVGID_31_" x="0.9" y="0.8" width="14.2" height="14.3"/>
				</defs>
				<clipPath id="SVGID_32_">
					<use xlink:href="#SVGID_31_"  style="overflow:visible;"/>
				</clipPath>
				<path class="st15" d="M10.2,8.3c0,0-0.1,0.1-0.1,0.1L9.9,8.7v0.1c0,0.1,0,0.1,0,0.1L10,9l0,0.1c0,0-0.1,0-0.2,0c0,0-0.1,0-0.1,0
					l0-0.1l0.1,0c0,0,0-0.1,0-0.1V8.8L9.5,8.4c0,0-0.1-0.1-0.1-0.1l-0.1,0l0-0.1c0,0,0.1,0,0.1,0c0.1,0,0.2,0,0.2,0l0,0.1l-0.1,0
					c0,0,0,0.1,0,0.1l0.1,0.2L10,8.3c0,0,0-0.1,0-0.1l-0.1,0l0-0.1c0,0,0.1,0,0.1,0C10.1,8.2,10.3,8.2,10.2,8.3L10.2,8.3L10.2,8.3z"
					/>
			</g>
		</g>
		<g>
			<g>
				<defs>
					<rect id="SVGID_33_" x="0.9" y="0.8" width="14.2" height="14.3"/>
				</defs>
				<clipPath id="SVGID_34_">
					<use xlink:href="#SVGID_33_"  style="overflow:visible;"/>
				</clipPath>
				<path class="st16" d="M10.7,8.3L10.7,8.3c-0.1,0-0.1,0.1-0.1,0.1v0.5c0,0.1,0,0.1,0,0.1h0.1c0,0,0.1,0,0.1,0c0,0,0,0,0,0
					c0,0,0-0.1,0-0.1l0.1,0l0,0.2l0,0c0,0-0.1,0-0.1,0h-0.3c0,0-0.1,0-0.1,0l0-0.1l0.1,0c0,0,0-0.1,0-0.1V8.4c0,0,0-0.1,0-0.1
					l-0.1,0l0-0.1c0,0,0.1,0,0.1,0C10.6,8.2,10.7,8.2,10.7,8.3L10.7,8.3z"/>
			</g>
		</g>
		<g>
			<g>
				<defs>
					<rect id="SVGID_35_" x="0.9" y="0.8" width="14.2" height="14.3"/>
				</defs>
				<clipPath id="SVGID_36_">
					<use xlink:href="#SVGID_35_"  style="overflow:visible;"/>
				</clipPath>
				<path class="st17" d="M11.1,8.2c0,0,0.1,0,0.1,0h0.3c0,0,0.1,0,0.1,0l0,0l0,0.2l-0.1,0c0,0,0-0.1,0-0.1c0,0,0,0,0,0
					c0,0-0.1,0-0.1,0h-0.2c0,0,0,0.1,0,0.1v0.2c0,0,0,0,0,0h0.1c0,0,0.1,0,0.1,0l0-0.1l0.1,0c0,0,0,0.1,0,0.1c0,0.1,0,0.1,0,0.1
					l-0.1,0l0-0.1c0,0-0.1,0-0.1,0h-0.1c0,0,0,0-0.1,0v0.2c0,0.1,0,0.1,0,0.1h0.2c0,0,0.1,0,0.1,0c0,0,0,0,0,0c0,0,0-0.1,0-0.1
					l0.1,0l0,0.2l0,0c0,0-0.1,0-0.1,0h-0.3c0,0-0.1,0-0.1,0l0-0.1l0.1,0c0,0,0-0.1,0-0.1V8.4C11.2,8.3,11.2,8.3,11.1,8.2L11.1,8.2
					L11.1,8.2z"/>
			</g>
		</g>
	</g>
	<rect x="4.2" y="7.4" width="7.6" height="0.1"/>
</g>
</svg>
