<?xml version="1.0" encoding="utf-8"?>
<!-- Generator: Adobe Illustrator 22.1.0, SVG Export Plug-In . SVG Version: 6.00 Build 0)  -->
<svg version="1.1" id="Ebene_1" xmlns="http://www.w3.org/2000/svg" xmlns:xlink="http://www.w3.org/1999/xlink" x="0px" y="0px"
	 viewBox="0 0 156 43" style="enable-background:new 0 0 156 43;" xml:space="preserve">
<title>logo-min</title>
<desc>Created with Sketch.</desc>
<g>
	<path d="M20.8,27.2v4.7c0,1.4-0.3,2.6-0.8,3.7c-0.4,0.9-1.1,1.8-2,2.5c-0.9,0.7-2.2,1.2-3.8,1.2s-3-0.4-3.9-1.2
		c-0.9-0.7-1.5-1.6-1.9-2.5c-0.5-1.1-0.8-2.3-0.8-3.7v-20c0-1.3,0.3-2.6,0.8-3.6c0.4-0.9,1-1.8,1.9-2.5s2.2-1.2,3.9-1.2
		S17.1,5,18,5.7s1.6,1.6,2,2.5c0.5,1.1,0.8,2.3,0.8,3.6v4.7h-4.7v-4.7c0-0.9-0.2-1.6-0.7-2.1c-0.2-0.2-0.6-0.4-1.2-0.4
		c-0.9,0-1.3,0.6-1.5,1.2c-0.1,0.4-0.2,0.8-0.2,1.2v20c0,1,0.3,1.6,0.8,2.1c0.2,0.2,0.6,0.4,1,0.4c1.1,0,1.5-0.6,1.7-1.2
		c0.1-0.3,0.2-0.7,0.2-1.2v-4.7H20.8z"/>
	<path d="M36.7,31.8c0,1.4-0.3,2.6-0.8,3.7c-0.4,0.9-1.1,1.8-2,2.5c-0.9,0.7-2.2,1.2-3.8,1.2s-3-0.4-3.9-1.2
		c-0.9-0.7-1.5-1.6-1.9-2.5c-0.5-1.1-0.8-2.3-0.8-3.7v-20c0-1.3,0.3-2.6,0.8-3.6c0.4-0.9,1-1.8,1.9-2.5s2.2-1.2,3.9-1.2
		S33,5,33.9,5.7c0.9,0.7,1.6,1.6,2,2.5c0.5,1.1,0.8,2.3,0.8,3.6V31.8z M31.8,11.9c0-0.9-0.2-1.6-0.6-2.1c-0.2-0.2-0.6-0.4-1-0.4
		c-0.9,0-1.3,0.6-1.5,1.2c-0.1,0.4-0.2,0.8-0.2,1.2v20c0,1,0.2,1.6,0.7,2.1c0.2,0.2,0.6,0.4,1,0.4c0.9,0,1.3-0.6,1.5-1.2
		c0.1-0.3,0.2-0.7,0.2-1.2V11.9z"/>
	<path d="M48.4,38.8l-3.2-21.3L45,16.1h-0.3v22.7h-4.6V4.9h6.1l3,15.5l0.2,1.8h0.1l0.2-1.8l3-15.5h6.1v33.9h-4.6V16.1h-0.3l-0.2,1.4
		l-3.2,21.3H48.4z"/>
	<path d="M62.4,4.9h5c2.2,0,4.3,0.6,6,2.1s2.8,4.1,2.8,8c0,3.9-1.1,6.4-2.8,8c-1.7,1.6-3.8,2.2-6,2.2v13.6h-5V4.9z M67.4,20.2
		c1.5,0,2.5-0.3,3-1.1c0.6-0.7,0.7-2,0.7-3.9c0-1.9-0.1-3.2-0.7-4.1c-0.6-0.8-1.5-1.2-3-1.2V20.2z"/>
	<path d="M77.3,38.8l5.1-33.9h6.1l5.1,33.9h-4.8l-0.9-6.9H83l-0.9,6.9H77.3z M85.7,15.9l-0.1-0.9h-0.3l-0.1,0.9l-1.4,10.7h3.4
		L85.7,15.9z"/>
	<path d="M101.2,21.2l-0.4-1.6h-0.3v19.2h-4.6V4.9h4.4l4.8,17.7l0.4,1.6h0.3V4.9h4.6v33.9H106L101.2,21.2z"/>
	<path d="M120,15.8l0.1,0.3h0.1l0.1-0.3l2.5-10.8h4.9l-5.1,19.5v14.4h-5V24.4l-5.1-19.5h4.9L120,15.8z"/>
</g>
</svg>
