<?xml version="1.0" encoding="utf-8"?>
<!-- Generator: Adobe Illustrator 22.1.0, SVG Export Plug-In . SVG Version: 6.00 Build 0)  -->
<svg version="1.1" id="Ebene_1" xmlns="http://www.w3.org/2000/svg" xmlns:xlink="http://www.w3.org/1999/xlink" x="0px" y="0px"
	 viewBox="0 0 282 284" style="enable-background:new 0 0 282 284;" xml:space="preserve">
<style type="text/css">
	.st0{fill:#383838;}
</style>
<title>logo</title>
<desc>Created with Sketch.</desc>
<g>
	<path class="st0" d="M142.1,123.2v12.1c1.8,0,2.9-0.3,3.6-1.3c0.7-0.9,0.8-2.3,0.8-4.6c0-2.2-0.2-3.8-0.8-4.8
		C145,123.7,143.9,123.2,142.1,123.2z"/>
	<path class="st0" d="M97.9,122.5c-1,0-1.5,0.8-1.7,1.5c-0.2,0.4-0.2,0.9-0.2,1.5v23.6c0,1.1,0.3,1.9,0.8,2.5
		c0.3,0.3,0.7,0.4,1.1,0.4c1,0,1.5-0.7,1.7-1.5c0.2-0.4,0.2-0.9,0.2-1.5v-23.6c0-1.1-0.2-1.9-0.8-2.5
		C98.9,122.7,98.4,122.5,97.9,122.5z"/>
	<polygon class="st0" points="163.6,129.2 163.3,129.2 163.1,130.3 161.4,142.9 165.4,142.9 163.8,130.3 	"/>
	<path class="st0" d="M141.6,22C76.2,22,23.1,75.1,23.1,140.5S76.2,259,141.6,259s118.5-53.1,118.5-118.5S207.1,22,141.6,22z
		 M86.9,131h-5.5v-5.5c0-1.1-0.3-1.9-0.9-2.5c-0.3-0.3-0.8-0.4-1.4-0.4c-1,0-1.5,0.8-1.8,1.5c-0.2,0.4-0.2,0.9-0.3,1.5v23.6
		c0.1,1.1,0.4,1.9,0.9,2.5c0.3,0.3,0.7,0.4,1.1,0.4c1.3,0,1.7-0.7,2-1.5c0.2-0.4,0.2-0.9,0.2-1.5v-5.5h5.5v5.5
		c-0.1,1.6-0.4,3.1-1,4.4c-0.5,1.1-1.3,2.1-2.3,2.9c-1.1,0.9-2.6,1.4-4.5,1.4s-3.5-0.5-4.6-1.4c-1.1-0.8-1.8-1.9-2.3-2.9
		c-0.6-1.3-0.9-2.7-1-4.4v-23.6c0.1-1.6,0.4-3.1,1-4.3c0.5-1.1,1.2-2.2,2.3-3c1.1-0.8,2.6-1.4,4.6-1.4s3.4,0.5,4.5,1.4
		c1.1,0.8,1.9,1.9,2.3,3c0.6,1.3,0.9,2.7,1,4.3V131z M105.8,149.1c-0.1,1.6-0.4,3.1-1,4.4c-0.5,1.1-1.3,2.1-2.3,2.9
		c-1.1,0.9-2.6,1.4-4.5,1.4s-3.5-0.5-4.6-1.4c-1.1-0.8-1.8-1.9-2.3-2.9c-0.6-1.3-0.9-2.7-1-4.4v-23.6c0.1-1.6,0.4-3.1,1-4.3
		c0.5-1.1,1.2-2.2,2.3-3c1.1-0.8,2.6-1.4,4.6-1.4s3.4,0.5,4.5,1.4c1.1,0.8,1.9,1.9,2.3,3c0.6,1.3,0.9,2.7,1,4.3V149.1z M131.8,157.4
		h-5.5v-26.9H126l-0.2,1.7l-3.8,25.2h-2.5l-3.8-25.2l-0.2-1.7h-0.3v26.9h-5.5v-40.1h7.2l3.5,18.3l0.3,2.1h0.1l0.3-2.1l3.5-18.3h7.2
		V157.4z M149.2,138.7c-2,1.9-4.5,2.6-7.1,2.6v16h-5.9v-40.1h5.9c2.6,0,5.1,0.7,7.1,2.5c2,1.9,3.3,4.9,3.3,9.5
		C152.5,133.8,151.1,136.8,149.2,138.7z M167.4,157.4l-1.1-8.2h-5.7l-1.1,8.2h-5.7l6.1-40.1h7.2l6.1,40.1H167.4z M193,157.4h-5.2
		l-5.7-20.9l-0.5-1.9h-0.3v22.8h-5.4v-40.1h5.2l5.7,20.9l0.5,1.9h0.3v-22.8h5.4V157.4z M207.5,140.3v17.1h-5.9v-17.1l-6-23h5.8
		l2.9,12.8l0.2,0.4h0.1l0.2-0.4l2.9-12.8h5.8L207.5,140.3z"/>
</g>
</svg>
